<svg width="100" height="100" viewBox="0 0 100 100" fill="none" xmlns="http://www.w3.org/2000/svg">
<rect width="100" height="100" rx="50" fill="url(#paint0_linear_1_2)"/>
<path d="M46.8507 64.8039C47.4216 64.9835 47.9925 65.1092 48.5634 65.1811C49.1343 65.217 49.7052 65.235 50.2761 65.235C51.7033 65.235 53.077 65.0374 54.3972 64.6422C55.7174 64.2471 56.9484 63.6902 58.0901 62.9717C59.2676 62.2173 60.3023 61.3192 61.1944 60.2774C62.1221 59.1996 70.4071 48.3145 69.4366 49.5539L78 38.1299C76.6441 40.0698 71.2207 71.2344 69.4366 72.7792C67.6883 74.3239 65.7793 75.6352 63.7099 76.7129C61.6761 77.7906 59.5174 78.5989 57.2338 79.1378C54.9859 79.7126 52.6667 80 50.2761 80C46.2441 80 42.4441 79.2456 38.8761 77.7367C35.3437 76.2279 32.2394 74.1263 29.5634 71.432C26.923 68.7376 24.8357 65.5403 23.3014 61.8401C21.7671 58.1039 21 54.0085 21 49.5539C21 44.9915 21.7671 40.8242 23.3014 37.0521C24.8357 33.28 26.923 30.0648 29.5634 27.4064C32.2394 24.7479 35.3437 22.6823 38.8761 21.2094C42.4441 19.7365 46.2441 19 50.2761 19C52.6667 19 55.0038 19.2874 57.2873 19.8622C59.5709 20.437 61.7296 21.2633 63.7634 22.341C65.8329 23.4187 67.7596 24.7479 69.5437 26.3286C71.3277 27.8734 72.8977 29.6157 74.2535 31.5557L46.8507 64.8039ZM54.3437 34.4655C53.6657 34.2141 52.9878 34.0524 52.3099 33.9806C51.6676 33.9087 50.9897 33.8728 50.2761 33.8728C48.2779 33.8728 46.3869 34.25 44.6028 35.0044C42.8545 35.7229 41.3202 36.7647 40 38.1299C38.7155 39.495 37.6986 41.1475 36.9493 43.0875C36.2 44.9915 35.8254 47.1469 35.8254 49.5539C35.8254 50.0928 35.8432 50.7035 35.8789 51.386C35.9502 52.0686 36.0394 52.7691 36.1465 53.4876C36.2892 54.1702 36.4498 54.8348 36.6282 55.4814C36.8066 56.1281 37.0385 56.7029 37.3239 57.2058L54.3437 34.4655Z" fill="white"/>
<defs>
<linearGradient id="paint0_linear_1_2" x1="82" y1="11" x2="18" y2="86.5" gradientUnits="userSpaceOnUse">
<stop stop-color="#2FB97D"/>
<stop offset="1" stop-color="#1AB69D"/>
</linearGradient>
</defs>
</svg>
