<svg xmlns="http://www.w3.org/2000/svg" width="40" height="40" viewBox="0 0 40 40" fill="none" data-inject-url="https://edublink.html.devsblink.com/assets/images/animated-svg-icons/off-campus-programs.svg" class="svgInject">
    <path d="M38.095 39.0474H1.90453C1.38072 39.0474 0.952148 38.6188 0.952148 38.095V1.90453C0.952148 1.38072 1.38072 0.952148 1.90453 0.952148H38.095C38.6188 0.952148 39.0474 1.38072 39.0474 1.90453V38.095C39.0474 38.6188 38.6188 39.0474 38.095 39.0474Z" stroke="#4664e4" stroke-width="2" stroke-miterlimit="10" style="stroke-dasharray: 151, 153; stroke-dashoffset: 0;"></path>
    <path d="M0.952148 9.75195H39.0474" stroke="#4664e4" stroke-width="2" stroke-miterlimit="10" style="stroke-dasharray: 39, 41; stroke-dashoffset: 0;"></path>
    <path d="M14.3997 18.2383L9.35205 24.0859L13.9997 29.924" stroke="#4664e4" stroke-width="2" stroke-miterlimit="10" stroke-linecap="round" stroke-linejoin="round" style="stroke-dasharray: 16, 18; stroke-dashoffset: 0;"></path>
    <path d="M24.0664 18.2383L29.1045 24.0859L24.4664 29.924" stroke="#4664e4" stroke-width="2" stroke-miterlimit="10" stroke-linecap="round" stroke-linejoin="round" style="stroke-dasharray: 16, 18; stroke-dashoffset: 0;"></path>
    <path d="M21.4379 18.2383L16.9141 29.924" stroke="#4664e4" stroke-width="2" stroke-miterlimit="10" stroke-linecap="round" stroke-linejoin="round" style="stroke-dasharray: 13, 15; stroke-dashoffset: 0;"></path>
    <path d="M5.78086 6.00899C6.0123 6.00899 6.19991 5.82138 6.19991 5.58995C6.19991 5.35851 6.0123 5.1709 5.78086 5.1709C5.54943 5.1709 5.36182 5.35851 5.36182 5.58995C5.36182 5.82138 5.54943 6.00899 5.78086 6.00899Z" stroke="#4664e4" stroke-width="2" stroke-miterlimit="10" stroke-linecap="round" stroke-linejoin="round" style="stroke-dasharray: 3, 5; stroke-dashoffset: 0;"></path>
    <path d="M9.42832 6.00899C9.65976 6.00899 9.84737 5.82138 9.84737 5.58995C9.84737 5.35851 9.65976 5.1709 9.42832 5.1709C9.19689 5.1709 9.00928 5.35851 9.00928 5.58995C9.00928 5.82138 9.19689 6.00899 9.42832 6.00899Z" stroke="#4664e4" stroke-width="2" stroke-miterlimit="10" stroke-linecap="round" stroke-linejoin="round" style="stroke-dasharray: 3, 5; stroke-dashoffset: 0;"></path>
    <path d="M13.0665 6.00899C13.2979 6.00899 13.4856 5.82138 13.4856 5.58995C13.4856 5.35851 13.2979 5.1709 13.0665 5.1709C12.8351 5.1709 12.6475 5.35851 12.6475 5.58995C12.6475 5.82138 12.8351 6.00899 13.0665 6.00899Z" stroke="#4664e4" stroke-width="2" stroke-miterlimit="10" stroke-linecap="round" stroke-linejoin="round" style="stroke-dasharray: 3, 5; stroke-dashoffset: 0;"></path>
</svg>