<svg xmlns="http://www.w3.org/2000/svg" width="40" height="40" viewBox="0 0 40 40" fill="none" data-inject-url="https://edublink.html.devsblink.com/assets/images/animated-svg-icons/hybrid-distance-programs.svg" class="svgInject">
    <path d="M3.51448 30.4573C0.0954334 27.0383 0.0954334 21.4954 3.51448 18.0764L18.0764 3.51448C21.4954 0.0954334 27.0383 0.0954334 30.4573 3.51448C33.8764 6.93353 33.8764 12.4764 30.4573 15.8954L15.8954 30.4573C12.4764 33.8764 6.93353 33.8764 3.51448 30.4573Z" stroke="#f8941f" stroke-width="2" stroke-miterlimit="10" stroke-linecap="round" style="stroke-dasharray: 97, 99; stroke-dashoffset: 0;"></path>
    <path d="M31.3715 39.0477C35.6109 39.0477 39.0477 35.6109 39.0477 31.3715C39.0477 27.1321 35.6109 23.6953 31.3715 23.6953C27.1321 23.6953 23.6953 27.1321 23.6953 31.3715C23.6953 35.6109 27.1321 39.0477 31.3715 39.0477Z" stroke="#f8941f" stroke-width="2" stroke-miterlimit="10" stroke-linecap="round" style="stroke-dasharray: 49, 51; stroke-dashoffset: 0;"></path>
    <path d="M10.7905 10.791L23.1715 23.172" stroke="#f8941f" stroke-width="2" stroke-miterlimit="10" stroke-linecap="round" style="stroke-dasharray: 18, 20; stroke-dashoffset: 0;"></path>
    <path d="M25.9619 36.781L36.781 25.9619" stroke="#f8941f" stroke-width="2" stroke-miterlimit="10" stroke-linecap="round" style="stroke-dasharray: 16, 18; stroke-dashoffset: 0;"></path>
    <path d="M19.5337 9.57139L21.9527 7.15234" stroke="#f8941f" stroke-width="2" stroke-miterlimit="10" stroke-linecap="round" style="stroke-dasharray: 4, 6; stroke-dashoffset: 0;"></path>
</svg>