<svg width="380" height="190" viewBox="0 0 380 190" fill="none" xmlns="http://www.w3.org/2000/svg">
<g filter="url(#filter0_d_59_4)">
<path d="M40 70C40 42.3858 62.3858 20 90 20H330C335.523 20 340 24.4772 340 30V80C340 107.614 317.614 130 290 130H50C44.4772 130 40 125.523 40 120V70Z" fill="white" shape-rendering="crispEdges"/>
<circle cx="95" cy="75" r="25" fill="#FDEDEF"/>
<path d="M101.092 85.4375C100.139 85.4375 98.7999 85.0928 96.795 83.9727C94.357 82.6055 92.4713 81.3433 90.0465 78.9248C87.7086 76.5884 86.5709 75.0757 84.9786 72.1783C83.1798 68.9068 83.4864 67.1919 83.8292 66.459C84.2374 65.583 84.8399 65.0591 85.6187 64.5391C86.0611 64.2493 86.5292 64.0008 87.0172 63.7969C87.066 63.7759 87.1114 63.7559 87.1519 63.7378C87.3936 63.6289 87.7599 63.4644 88.2237 63.6402C88.5333 63.7564 88.8097 63.9942 89.2423 64.4214C90.1295 65.2964 91.3419 67.2452 91.7891 68.2022C92.0894 68.8472 92.2882 69.273 92.2887 69.7505C92.2887 70.3096 92.0074 70.7408 91.6661 71.2061C91.6021 71.2935 91.5387 71.377 91.4771 71.458C91.1056 71.9463 91.024 72.0874 91.0777 72.3394C91.1866 72.8457 91.9986 74.3531 93.3331 75.6846C94.6676 77.0161 96.1314 77.7769 96.6397 77.8853C96.9024 77.9414 97.0465 77.8565 97.5504 77.4717C97.6226 77.4165 97.6969 77.3594 97.7745 77.3023C98.295 76.9151 98.7061 76.6411 99.252 76.6411H99.255C99.7301 76.6411 100.137 76.8472 100.811 77.187C101.69 77.6304 103.697 78.8272 104.577 79.7154C105.005 80.147 105.244 80.4224 105.361 80.7315C105.537 81.1968 105.371 81.5616 105.263 81.8057C105.245 81.8462 105.225 81.8907 105.204 81.94C104.999 82.4271 104.749 82.8942 104.458 83.3355C103.939 84.1119 103.413 84.7129 102.535 85.1216C102.084 85.3349 101.591 85.4429 101.092 85.4375Z" fill="#EE4A62"/>
<path d="M140.122 66.091C139.264 66.091 138.475 65.8917 137.756 65.493C137.045 65.0943 136.478 64.5397 136.053 63.829C135.637 63.1097 135.429 62.3037 135.429 61.411C135.429 60.5183 135.637 59.7167 136.053 59.006C136.478 58.2953 137.045 57.7407 137.756 57.342C138.475 56.9433 139.264 56.744 140.122 56.744C140.98 56.744 141.764 56.9433 142.475 57.342C143.194 57.7407 143.758 58.2953 144.165 59.006C144.581 59.7167 144.789 60.5183 144.789 61.411C144.789 62.3037 144.581 63.1097 144.165 63.829C143.749 64.5397 143.186 65.0943 142.475 65.493C141.764 65.8917 140.98 66.091 140.122 66.091ZM140.122 64.063C140.85 64.063 141.431 63.8203 141.864 63.335C142.306 62.8497 142.527 62.2083 142.527 61.411C142.527 60.605 142.306 59.9637 141.864 59.487C141.431 59.0017 140.85 58.759 140.122 58.759C139.385 58.759 138.796 58.9973 138.354 59.474C137.921 59.9507 137.704 60.5963 137.704 61.411C137.704 62.217 137.921 62.8627 138.354 63.348C138.796 63.8247 139.385 64.063 140.122 64.063ZM154.58 66H152.357L148.639 60.371V66H146.416V56.874H148.639L152.357 62.529V56.874H154.58V66ZM158.804 64.284H161.716V66H156.581V56.874H158.804V64.284ZM165.389 56.874V66H163.166V56.874H165.389ZM175.554 66H173.331L169.613 60.371V66H167.39V56.874H169.613L173.331 62.529V56.874H175.554V66ZM179.779 58.655V60.501H182.756V62.217H179.779V64.219H183.146V66H177.556V56.874H183.146V58.655H179.779ZM191.426 66.091C190.759 66.091 190.161 65.9827 189.632 65.766C189.103 65.5493 188.679 65.2287 188.358 64.804C188.046 64.3793 187.881 63.868 187.864 63.27H190.23C190.265 63.608 190.382 63.868 190.581 64.05C190.78 64.2233 191.04 64.31 191.361 64.31C191.69 64.31 191.95 64.2363 192.141 64.089C192.332 63.933 192.427 63.7207 192.427 63.452C192.427 63.2267 192.349 63.0403 192.193 62.893C192.046 62.7457 191.859 62.6243 191.634 62.529C191.417 62.4337 191.105 62.3253 190.698 62.204C190.109 62.022 189.628 61.84 189.255 61.658C188.882 61.476 188.562 61.2073 188.293 60.852C188.024 60.4967 187.89 60.033 187.89 59.461C187.89 58.6117 188.198 57.9487 188.813 57.472C189.428 56.9867 190.23 56.744 191.218 56.744C192.223 56.744 193.034 56.9867 193.649 57.472C194.264 57.9487 194.594 58.616 194.637 59.474H192.232C192.215 59.1793 192.106 58.9497 191.907 58.785C191.708 58.6117 191.452 58.525 191.14 58.525C190.871 58.525 190.655 58.5987 190.49 58.746C190.325 58.8847 190.243 59.0883 190.243 59.357C190.243 59.6517 190.382 59.8813 190.659 60.046C190.936 60.2107 191.37 60.3883 191.959 60.579C192.548 60.7783 193.025 60.969 193.389 61.151C193.762 61.333 194.082 61.5973 194.351 61.944C194.62 62.2907 194.754 62.737 194.754 63.283C194.754 63.803 194.62 64.2753 194.351 64.7C194.091 65.1247 193.71 65.4627 193.207 65.714C192.704 65.9653 192.111 66.091 191.426 66.091ZM198.696 56.874V62.334C198.696 62.88 198.83 63.3003 199.099 63.595C199.368 63.8897 199.762 64.037 200.282 64.037C200.802 64.037 201.201 63.8897 201.478 63.595C201.755 63.3003 201.894 62.88 201.894 62.334V56.874H204.117V62.321C204.117 63.1357 203.944 63.8247 203.597 64.388C203.25 64.9513 202.782 65.376 202.193 65.662C201.612 65.948 200.962 66.091 200.243 66.091C199.524 66.091 198.878 65.9523 198.306 65.675C197.743 65.389 197.296 64.9643 196.967 64.401C196.638 63.829 196.473 63.1357 196.473 62.321V56.874H198.696ZM213.023 59.812C213.023 60.3407 212.902 60.826 212.659 61.268C212.416 61.7013 212.044 62.0523 211.541 62.321C211.038 62.5897 210.414 62.724 209.669 62.724H208.291V66H206.068V56.874H209.669C210.397 56.874 211.012 56.9997 211.515 57.251C212.018 57.5023 212.395 57.849 212.646 58.291C212.897 58.733 213.023 59.24 213.023 59.812ZM209.5 60.956C209.925 60.956 210.241 60.8563 210.449 60.657C210.657 60.4577 210.761 60.176 210.761 59.812C210.761 59.448 210.657 59.1663 210.449 58.967C210.241 58.7677 209.925 58.668 209.5 58.668H208.291V60.956H209.5ZM221.525 59.812C221.525 60.3407 221.404 60.826 221.161 61.268C220.919 61.7013 220.546 62.0523 220.043 62.321C219.541 62.5897 218.917 62.724 218.171 62.724H216.793V66H214.57V56.874H218.171C218.899 56.874 219.515 56.9997 220.017 57.251C220.52 57.5023 220.897 57.849 221.148 58.291C221.4 58.733 221.525 59.24 221.525 59.812ZM218.002 60.956C218.427 60.956 218.743 60.8563 218.951 60.657C219.159 60.4577 219.263 60.176 219.263 59.812C219.263 59.448 219.159 59.1663 218.951 58.967C218.743 58.7677 218.427 58.668 218.002 58.668H216.793V60.956H218.002ZM227.389 66.091C226.531 66.091 225.742 65.8917 225.023 65.493C224.312 65.0943 223.744 64.5397 223.32 63.829C222.904 63.1097 222.696 62.3037 222.696 61.411C222.696 60.5183 222.904 59.7167 223.32 59.006C223.744 58.2953 224.312 57.7407 225.023 57.342C225.742 56.9433 226.531 56.744 227.389 56.744C228.247 56.744 229.031 56.9433 229.742 57.342C230.461 57.7407 231.024 58.2953 231.432 59.006C231.848 59.7167 232.056 60.5183 232.056 61.411C232.056 62.3037 231.848 63.1097 231.432 63.829C231.016 64.5397 230.452 65.0943 229.742 65.493C229.031 65.8917 228.247 66.091 227.389 66.091ZM227.389 64.063C228.117 64.063 228.697 63.8203 229.131 63.335C229.573 62.8497 229.794 62.2083 229.794 61.411C229.794 60.605 229.573 59.9637 229.131 59.487C228.697 59.0017 228.117 58.759 227.389 58.759C226.652 58.759 226.063 58.9973 225.621 59.474C225.187 59.9507 224.971 60.5963 224.971 61.411C224.971 62.217 225.187 62.8627 225.621 63.348C226.063 63.8247 226.652 64.063 227.389 64.063ZM238.336 66L236.438 62.555H235.905V66H233.682V56.874H237.413C238.133 56.874 238.744 56.9997 239.246 57.251C239.758 57.5023 240.139 57.849 240.39 58.291C240.642 58.7243 240.767 59.2097 240.767 59.747C240.767 60.3537 240.594 60.8953 240.247 61.372C239.909 61.8487 239.407 62.1867 238.739 62.386L240.845 66H238.336ZM235.905 60.982H237.283C237.691 60.982 237.994 60.8823 238.193 60.683C238.401 60.4837 238.505 60.202 238.505 59.838C238.505 59.4913 238.401 59.2183 238.193 59.019C237.994 58.8197 237.691 58.72 237.283 58.72H235.905V60.982ZM249.118 56.874V58.655H246.7V66H244.477V58.655H242.059V56.874H249.118Z" fill="#89898B"/>
<path d="M141.18 91.84V87.55H136.9V85.87H141.18V81.58H142.86V85.87H147.15V87.55H142.86V91.84H141.18ZM157.323 95.32C155.976 95.32 154.796 94.9633 153.783 94.25C152.77 93.53 151.98 92.5267 151.413 91.24C150.853 89.9533 150.573 88.46 150.573 86.76C150.573 85.0533 150.853 83.56 151.413 82.28C151.98 80.9933 152.77 79.9933 153.783 79.28C154.796 78.56 155.976 78.2 157.323 78.2C158.67 78.2 159.846 78.56 160.853 79.28C161.866 79.9933 162.653 80.9933 163.213 82.28C163.78 83.56 164.063 85.0533 164.063 86.76C164.063 88.46 163.78 89.9533 163.213 91.24C162.653 92.5267 161.866 93.53 160.853 94.25C159.846 94.9633 158.67 95.32 157.323 95.32ZM157.323 93.51C158.25 93.51 159.056 93.2333 159.743 92.68C160.43 92.1267 160.963 91.3433 161.343 90.33C161.723 89.3167 161.913 88.1267 161.913 86.76C161.913 85.3867 161.723 84.1967 161.343 83.19C160.963 82.1767 160.43 81.3933 159.743 80.84C159.056 80.2867 158.25 80.01 157.323 80.01C156.396 80.01 155.586 80.2867 154.893 80.84C154.206 81.3933 153.673 82.1767 153.293 83.19C152.913 84.1967 152.723 85.3867 152.723 86.76C152.723 88.1267 152.913 89.3167 153.293 90.33C153.673 91.3433 154.206 92.1267 154.893 92.68C155.586 93.2333 156.396 93.51 157.323 93.51ZM168.506 95V80.5H166.676V78.5H170.536V95H168.506ZM174.068 95V94.01C175.535 92.87 176.802 91.8533 177.868 90.96C178.935 90.0667 179.832 89.27 180.558 88.57C181.285 87.8633 181.865 87.23 182.298 86.67C182.738 86.1033 183.052 85.58 183.238 85.1C183.432 84.62 183.528 84.1533 183.528 83.7C183.528 83.0267 183.368 82.4167 183.048 81.87C182.728 81.3167 182.295 80.8767 181.748 80.55C181.208 80.2233 180.602 80.06 179.928 80.06C179.268 80.06 178.665 80.2233 178.118 80.55C177.572 80.8767 177.115 81.3333 176.748 81.92C176.388 82.5067 176.152 83.19 176.038 83.97L174.268 83.27C174.382 82.53 174.602 81.85 174.928 81.23C175.262 80.61 175.682 80.0733 176.188 79.62C176.702 79.1667 177.282 78.8167 177.928 78.57C178.582 78.3167 179.285 78.19 180.038 78.19C181.112 78.19 182.078 78.43 182.938 78.91C183.798 79.3833 184.478 80.0333 184.978 80.86C185.478 81.68 185.728 82.6133 185.728 83.66C185.728 84.1933 185.648 84.7167 185.488 85.23C185.335 85.7433 185.078 86.2767 184.718 86.83C184.365 87.3767 183.888 87.9633 183.288 88.59C182.695 89.21 181.962 89.8933 181.088 90.64C180.222 91.3867 179.192 92.22 177.998 93.14H186.028V95H174.068ZM197.885 100.2C197.485 99.6867 197.072 99.05 196.645 98.29C196.218 97.53 195.822 96.6633 195.455 95.69C195.088 94.7233 194.792 93.6667 194.565 92.52C194.345 91.3733 194.235 90.1533 194.235 88.86C194.235 87.5667 194.348 86.3433 194.575 85.19C194.802 84.0367 195.095 82.9767 195.455 82.01C195.822 81.0367 196.218 80.17 196.645 79.41C197.072 78.65 197.485 78.0133 197.885 77.5L199.145 78.04C198.685 78.72 198.218 79.59 197.745 80.65C197.272 81.71 196.875 82.93 196.555 84.31C196.242 85.69 196.085 87.2067 196.085 88.86C196.085 90.4733 196.238 91.9667 196.545 93.34C196.858 94.7133 197.252 95.9333 197.725 97C198.198 98.0667 198.672 98.9533 199.145 99.66L197.885 100.2ZM206.636 95.32C205.656 95.32 204.772 95.1433 203.986 94.79C203.206 94.4367 202.566 93.9433 202.066 93.31C201.572 92.6767 201.262 91.94 201.136 91.1L203.056 90.32C203.076 90.9467 203.239 91.5 203.546 91.98C203.852 92.46 204.272 92.8333 204.806 93.1C205.339 93.3667 205.949 93.5 206.636 93.5C207.629 93.5 208.422 93.2267 209.016 92.68C209.609 92.1267 209.906 91.4067 209.906 90.52C209.906 89.8867 209.759 89.3167 209.466 88.81C209.179 88.3033 208.792 87.9033 208.306 87.61C207.819 87.31 207.279 87.16 206.686 87.16C206.426 87.16 206.206 87.19 206.026 87.25V85.8H206.636C207.216 85.8 207.739 85.66 208.206 85.38C208.672 85.1 209.042 84.73 209.316 84.27C209.589 83.8033 209.726 83.3 209.726 82.76C209.726 82.22 209.592 81.7333 209.326 81.3C209.059 80.8667 208.702 80.5233 208.256 80.27C207.809 80.0167 207.316 79.89 206.776 79.89C206.229 79.89 205.726 80.02 205.266 80.28C204.812 80.54 204.442 80.89 204.156 81.33C203.869 81.77 203.709 82.2667 203.676 82.82L202.006 82.16C202.112 81.3867 202.389 80.7033 202.836 80.11C203.282 79.51 203.849 79.0433 204.536 78.71C205.229 78.37 205.986 78.2 206.806 78.2C207.719 78.2 208.539 78.4 209.266 78.8C209.992 79.2 210.566 79.74 210.986 80.42C211.406 81.1 211.616 81.8667 211.616 82.72C211.616 83.26 211.519 83.77 211.326 84.25C211.139 84.73 210.872 85.1567 210.526 85.53C210.179 85.8967 209.772 86.1867 209.306 86.4C209.819 86.5933 210.276 86.8833 210.676 87.27C211.082 87.6567 211.399 88.1233 211.626 88.67C211.859 89.21 211.976 89.8167 211.976 90.49C211.976 91.41 211.756 92.2367 211.316 92.97C210.882 93.6967 210.266 94.27 209.466 94.69C208.666 95.11 207.722 95.32 206.636 95.32ZM222.314 95V91.87H214.054V91.09L222.224 78.5H224.234V90.08H226.154V91.87H224.234V95H222.314ZM216.754 90.08H222.314V81.28L216.754 90.08ZM234.195 95.31C233.308 95.31 232.475 95.17 231.695 94.89C230.921 94.6033 230.248 94.1933 229.675 93.66C229.101 93.1267 228.675 92.4833 228.395 91.73L230.015 90.94C230.301 91.76 230.818 92.41 231.565 92.89C232.318 93.37 233.191 93.61 234.185 93.61C234.985 93.61 235.678 93.4567 236.265 93.15C236.858 92.8367 237.318 92.3967 237.645 91.83C237.971 91.2633 238.135 90.5967 238.135 89.83C238.135 88.9633 237.928 88.2167 237.515 87.59C237.108 86.9567 236.545 86.47 235.825 86.13C235.105 85.79 234.278 85.62 233.345 85.62C232.578 85.62 231.855 85.76 231.175 86.04C230.495 86.32 229.868 86.73 229.295 87.27L230.665 78.5H239.085V80.29H232.375L231.635 85.07C232.975 84.41 234.355 84.2267 235.775 84.52C236.641 84.64 237.401 84.9333 238.055 85.4C238.708 85.86 239.218 86.46 239.585 87.2C239.958 87.9333 240.145 88.7767 240.145 89.73C240.145 90.9367 239.875 91.9567 239.335 92.79C238.795 93.6167 238.075 94.2433 237.175 94.67C236.275 95.0967 235.281 95.31 234.195 95.31ZM243.882 100.2L242.622 99.66C243.275 98.6933 243.829 97.6267 244.282 96.46C244.735 95.2933 245.079 94.0667 245.312 92.78C245.552 91.4933 245.672 90.1867 245.672 88.86C245.672 87.5733 245.559 86.2933 245.332 85.02C245.105 83.74 244.765 82.51 244.312 81.33C243.865 80.1433 243.302 79.0467 242.622 78.04L243.882 77.5C245.055 79.04 245.952 80.7933 246.572 82.76C247.199 84.72 247.512 86.75 247.512 88.85C247.512 90.8833 247.209 92.8833 246.602 94.85C246.002 96.8167 245.095 98.6 243.882 100.2ZM261.538 95.32C260.618 95.32 259.784 95.17 259.038 94.87C258.298 94.5633 257.664 94.1467 257.138 93.62C256.618 93.0933 256.218 92.49 255.938 91.81C255.658 91.13 255.518 90.4133 255.518 89.66C255.518 88.8267 255.698 87.96 256.058 87.06C256.424 86.1533 256.911 85.3367 257.518 84.61L262.618 78.5H265.088L260.058 84.48C260.364 84.32 260.684 84.2 261.018 84.12C261.358 84.0333 261.711 83.99 262.078 83.99C262.818 83.99 263.511 84.13 264.158 84.41C264.804 84.6833 265.371 85.0733 265.858 85.58C266.344 86.0867 266.724 86.6867 266.998 87.38C267.278 88.0667 267.418 88.8267 267.418 89.66C267.418 90.7667 267.168 91.7467 266.668 92.6C266.168 93.4533 265.474 94.12 264.588 94.6C263.708 95.08 262.691 95.32 261.538 95.32ZM261.458 93.6C262.218 93.6 262.894 93.4333 263.488 93.1C264.081 92.76 264.548 92.2967 264.888 91.71C265.228 91.1233 265.398 90.4567 265.398 89.71C265.398 88.95 265.224 88.2733 264.878 87.68C264.538 87.08 264.074 86.61 263.488 86.27C262.908 85.9233 262.261 85.75 261.548 85.75C260.821 85.75 260.158 85.9267 259.558 86.28C258.958 86.6333 258.478 87.1133 258.118 87.72C257.764 88.3267 257.588 89.0067 257.588 89.76C257.588 90.46 257.748 91.1033 258.068 91.69C258.388 92.27 258.838 92.7333 259.418 93.08C259.998 93.4267 260.678 93.6 261.458 93.6ZM269.622 95L277.742 80.29H269.852V78.5H280.742V79.14L272.022 95H269.622ZM288.375 95.32C287.342 95.32 286.412 95.1133 285.585 94.7C284.765 94.2867 284.115 93.72 283.635 93C283.162 92.28 282.925 91.4633 282.925 90.55C282.925 89.5633 283.202 88.68 283.755 87.9C284.315 87.12 285.055 86.5533 285.975 86.2C285.229 85.8467 284.642 85.3333 284.215 84.66C283.789 83.98 283.575 83.24 283.575 82.44C283.575 81.6333 283.789 80.9133 284.215 80.28C284.642 79.64 285.215 79.1333 285.935 78.76C286.662 78.3867 287.475 78.2 288.375 78.2C289.002 78.2 289.602 78.3 290.175 78.5C290.749 78.7 291.262 78.9867 291.715 79.36C292.169 79.7333 292.525 80.18 292.785 80.7C293.052 81.2133 293.185 81.79 293.185 82.43C293.185 83.25 292.965 83.9967 292.525 84.67C292.092 85.3367 291.509 85.8467 290.775 86.2C291.709 86.56 292.452 87.13 293.005 87.91C293.559 88.69 293.835 89.5733 293.835 90.56C293.835 91.4667 293.595 92.28 293.115 93C292.642 93.7133 291.992 94.28 291.165 94.7C290.345 95.1133 289.415 95.32 288.375 95.32ZM288.375 93.54C289.015 93.54 289.579 93.4033 290.065 93.13C290.559 92.85 290.942 92.47 291.215 91.99C291.489 91.51 291.625 90.97 291.625 90.37C291.625 89.75 291.482 89.2 291.195 88.72C290.915 88.24 290.532 87.8633 290.045 87.59C289.559 87.31 289.002 87.17 288.375 87.17C287.762 87.17 287.209 87.3067 286.715 87.58C286.229 87.8533 285.842 88.23 285.555 88.71C285.275 89.19 285.135 89.74 285.135 90.36C285.135 90.9667 285.272 91.51 285.545 91.99C285.819 92.47 286.199 92.85 286.685 93.13C287.179 93.4033 287.742 93.54 288.375 93.54ZM288.375 85.42C288.922 85.42 289.409 85.3 289.835 85.06C290.269 84.8133 290.609 84.48 290.855 84.06C291.102 83.6333 291.225 83.15 291.225 82.61C291.225 82.07 291.099 81.5867 290.845 81.16C290.599 80.7267 290.262 80.3867 289.835 80.14C289.409 79.8933 288.922 79.77 288.375 79.77C287.835 79.77 287.352 79.8933 286.925 80.14C286.499 80.3867 286.159 80.7267 285.905 81.16C285.659 81.5867 285.535 82.07 285.535 82.61C285.535 83.15 285.659 83.6333 285.905 84.06C286.152 84.48 286.489 84.8133 286.915 85.06C287.349 85.3 287.835 85.42 288.375 85.42ZM298.863 95L303.983 88.92C303.416 89.3133 302.753 89.51 301.993 89.51C301.253 89.51 300.553 89.37 299.893 89.09C299.239 88.81 298.659 88.4167 298.153 87.91C297.653 87.3967 297.256 86.7933 296.963 86.1C296.676 85.4067 296.533 84.6467 296.533 83.82C296.533 82.76 296.773 81.8067 297.253 80.96C297.739 80.1067 298.423 79.4333 299.303 78.94C300.183 78.44 301.213 78.19 302.393 78.19C303.586 78.19 304.636 78.4433 305.543 78.95C306.449 79.45 307.156 80.1333 307.663 81C308.176 81.86 308.433 82.83 308.433 83.91C308.433 84.4233 308.389 84.9 308.303 85.34C308.216 85.78 308.086 86.2 307.913 86.6C307.739 86.9933 307.526 87.38 307.273 87.76C307.026 88.1333 306.743 88.51 306.423 88.89L301.333 95H298.863ZM302.483 87.72C303.016 87.72 303.513 87.62 303.973 87.42C304.439 87.2133 304.846 86.93 305.193 86.57C305.546 86.2033 305.823 85.7833 306.023 85.31C306.223 84.8367 306.323 84.33 306.323 83.79C306.323 83.0433 306.156 82.38 305.822 81.8C305.496 81.22 305.043 80.7667 304.463 80.44C303.889 80.1067 303.229 79.94 302.483 79.94C301.736 79.94 301.066 80.1067 300.473 80.44C299.886 80.7733 299.423 81.23 299.083 81.81C298.743 82.39 298.573 83.05 298.573 83.79C298.573 84.53 298.743 85.1967 299.083 85.79C299.429 86.3833 299.896 86.8533 300.483 87.2C301.076 87.5467 301.743 87.72 302.483 87.72Z" fill="#EF5269"/>
</g>
<defs>
<filter id="filter0_d_59_4" x="0" y="0" width="380" height="190" filterUnits="userSpaceOnUse" color-interpolation-filters="sRGB">
<feFlood flood-opacity="0" result="BackgroundImageFix"/>
<feColorMatrix in="SourceAlpha" type="matrix" values="0 0 0 0 0 0 0 0 0 0 0 0 0 0 0 0 0 0 127 0" result="hardAlpha"/>
<feOffset dy="20"/>
<feGaussianBlur stdDeviation="20"/>
<feComposite in2="hardAlpha" operator="out"/>
<feColorMatrix type="matrix" values="0 0 0 0 0 0 0 0 0 0 0 0 0 0 0 0 0 0 0.1 0"/>
<feBlend mode="normal" in2="BackgroundImageFix" result="effect1_dropShadow_59_4"/>
<feBlend mode="normal" in="SourceGraphic" in2="effect1_dropShadow_59_4" result="shape"/>
</filter>
</defs>
</svg>
