<svg width="156" height="50" viewBox="0 0 156 50" fill="none" xmlns="http://www.w3.org/2000/svg">
<g clip-path="url(#clip0_12_9)">
<rect width="50" height="50" rx="25" fill="url(#paint0_linear_12_9)"/>
<path d="M23.8845 31.523C24.1249 31.5995 24.3653 31.6531 24.6056 31.6837C24.846 31.6991 25.0864 31.7067 25.3268 31.7067C25.9277 31.7067 26.5061 31.6225 27.062 31.4541C27.6178 31.2856 28.1361 31.0483 28.6169 30.742C29.1127 30.4205 29.5484 30.0377 29.9239 29.5936C30.3146 29.1343 33.803 24.4947 33.3944 25.023L37 20.1537C36.4291 20.9806 34.1455 34.2638 33.3944 34.9223C32.6582 35.5807 31.8545 36.1396 30.9831 36.5989C30.1268 37.0583 29.2178 37.4028 28.2563 37.6325C27.3099 37.8775 26.3333 38 25.3268 38C23.6291 38 22.0291 37.6784 20.5268 37.0353C19.0394 36.3922 17.7324 35.4965 16.6056 34.3481C15.4939 33.1996 14.615 31.8369 13.969 30.2597C13.323 28.6673 13 26.9217 13 25.023C13 23.0783 13.323 21.3021 13.969 19.6943C14.615 18.0866 15.4939 16.7161 16.6056 15.583C17.7324 14.4499 19.0394 13.5695 20.5268 12.9417C22.0291 12.3139 23.6291 12 25.3268 12C26.3333 12 27.3174 12.1225 28.2789 12.3675C29.2404 12.6125 30.1493 12.9647 31.0056 13.424C31.877 13.8834 32.6883 14.4499 33.4394 15.1237C34.1906 15.7821 34.8516 16.5247 35.4225 17.3516L23.8845 31.523ZM27.0394 18.5919C26.754 18.4847 26.4685 18.4158 26.1831 18.3852C25.9127 18.3545 25.6272 18.3392 25.3268 18.3392C24.4854 18.3392 23.6892 18.5 22.938 18.8216C22.2019 19.1278 21.5559 19.5718 21 20.1537C20.4592 20.7356 20.031 21.4399 19.7155 22.2668C19.4 23.0783 19.2423 23.9971 19.2423 25.023C19.2423 25.2526 19.2498 25.513 19.2648 25.8039C19.2948 26.0948 19.3324 26.3934 19.3775 26.6996C19.4376 26.9906 19.5052 27.2739 19.5803 27.5495C19.6554 27.8251 19.7531 28.0701 19.8732 28.2845L27.0394 18.5919Z" fill="white"/>
<path d="M64.1 33V16.5H73.58V19.88H67.95V23.04H73.34V26.42H67.95V29.62H73.58V33H64.1ZM81.1713 33.32C80.2513 33.32 79.4113 33.09 78.6513 32.63C77.8913 32.17 77.2813 31.53 76.8213 30.71C76.3679 29.89 76.1413 28.9467 76.1413 27.88C76.1413 26.8467 76.3613 25.92 76.8013 25.1C77.2413 24.28 77.8446 23.6333 78.6113 23.16C79.3846 22.68 80.2679 22.44 81.2613 22.44C81.9079 22.44 82.5146 22.55 83.0813 22.77C83.6479 22.99 84.1346 23.3 84.5413 23.7V15.8H88.1913V33H84.5413V31.94C84.0813 32.38 83.5613 32.72 82.9813 32.96C82.4079 33.2 81.8046 33.32 81.1713 33.32ZM82.2913 30.23C82.7446 30.23 83.1446 30.13 83.4913 29.93C83.8446 29.7233 84.1179 29.4433 84.3113 29.09C84.5113 28.7367 84.6113 28.34 84.6113 27.9C84.6113 27.44 84.5113 27.0333 84.3113 26.68C84.1113 26.3267 83.8379 26.0467 83.4913 25.84C83.1446 25.6333 82.7479 25.53 82.3013 25.53C81.8613 25.53 81.4679 25.6333 81.1213 25.84C80.7746 26.0467 80.4979 26.33 80.2913 26.69C80.0913 27.0433 79.9913 27.45 79.9913 27.91C79.9913 28.35 80.0879 28.7467 80.2812 29.1C80.4813 29.4467 80.7546 29.7233 81.1013 29.93C81.4479 30.13 81.8446 30.23 82.2913 30.23ZM96.9011 33.32C94.9144 33.32 93.4811 32.9433 92.6011 32.19C91.7211 31.4367 91.2811 30.2133 91.2811 28.52V22.76H94.9311V27.62C94.9311 28.6267 95.0778 29.3367 95.3711 29.75C95.6711 30.1567 96.1811 30.36 96.9011 30.36C97.6278 30.36 98.1378 30.1567 98.4311 29.75C98.7244 29.3367 98.8711 28.6267 98.8711 27.62V22.76H102.521V28.52C102.521 30.2133 102.081 31.4367 101.201 32.19C100.321 32.9433 98.8878 33.32 96.9011 33.32ZM110.034 33L105.134 16.5H106.824L110.954 31.02L115.784 16.5H116.964L121.814 31.02L125.924 16.5H127.614L122.714 33H121.004L116.384 19.49L111.754 33H110.034ZM134.36 33.32C133.287 33.32 132.327 33.0833 131.48 32.61C130.64 32.1367 129.98 31.4933 129.5 30.68C129.02 29.86 128.78 28.94 128.78 27.92C128.78 27.1533 128.917 26.44 129.19 25.78C129.47 25.1133 129.857 24.53 130.35 24.03C130.843 23.53 131.417 23.14 132.07 22.86C132.723 22.58 133.42 22.44 134.16 22.44C135.173 22.44 136.073 22.6633 136.86 23.11C137.653 23.55 138.28 24.16 138.74 24.94C139.207 25.72 139.453 26.62 139.48 27.64C139.48 27.72 139.477 27.7867 139.47 27.84C139.47 27.8867 139.463 27.9467 139.45 28.02H130.23C130.23 28.82 130.41 29.5267 130.77 30.14C131.13 30.7533 131.623 31.2367 132.25 31.59C132.883 31.9367 133.607 32.11 134.42 32.11C135.193 32.11 135.887 31.95 136.5 31.63C137.12 31.3033 137.637 30.8367 138.05 30.23L139.13 30.81C138.643 31.6033 137.98 32.22 137.14 32.66C136.307 33.1 135.38 33.32 134.36 33.32ZM130.31 26.92H138.02C137.933 26.28 137.71 25.7167 137.35 25.23C136.99 24.7367 136.533 24.35 135.98 24.07C135.433 23.79 134.833 23.65 134.18 23.65C133.507 23.65 132.893 23.79 132.34 24.07C131.787 24.3433 131.33 24.7267 130.97 25.22C130.617 25.7067 130.397 26.2733 130.31 26.92ZM148.63 33.32C147.723 33.32 146.896 33.1 146.15 32.66C145.403 32.22 144.813 31.6133 144.38 30.84V33H142.92V15.8H144.38V24.89C144.8 24.1233 145.38 23.5233 146.12 23.09C146.86 22.6567 147.686 22.44 148.6 22.44C149.58 22.44 150.456 22.6767 151.23 23.15C152.003 23.6233 152.61 24.27 153.05 25.09C153.496 25.9033 153.72 26.8333 153.72 27.88C153.72 28.9333 153.493 29.87 153.04 30.69C152.593 31.51 151.986 32.1533 151.22 32.62C150.453 33.0867 149.59 33.32 148.63 33.32ZM148.27 32.05C149.036 32.05 149.716 31.8733 150.31 31.52C150.903 31.16 151.366 30.6667 151.7 30.04C152.04 29.4067 152.21 28.69 152.21 27.89C152.21 27.0767 152.04 26.3567 151.7 25.73C151.36 25.0967 150.893 24.6033 150.3 24.25C149.713 23.89 149.036 23.71 148.27 23.71C147.503 23.71 146.823 23.89 146.23 24.25C145.636 24.6033 145.17 25.0967 144.83 25.73C144.49 26.3567 144.32 27.0767 144.32 27.89C144.32 28.69 144.486 29.4067 144.82 30.04C145.16 30.6667 145.626 31.16 146.22 31.52C146.82 31.8733 147.503 32.05 148.27 32.05Z" fill="white"/>
</g>
<defs>
<linearGradient id="paint0_linear_12_9" x1="41" y1="5.5" x2="9" y2="43.25" gradientUnits="userSpaceOnUse">
<stop stop-color="#2FB97D"/>
<stop offset="1" stop-color="#1AB69D"/>
</linearGradient>
<clipPath id="clip0_12_9">
<rect width="156" height="50" fill="white"/>
</clipPath>
</defs>
</svg>
